<svg width="592.953125px" height="304.4px" xmlns="http://www.w3.org/2000/svg" viewBox="-46.4765625 -77.19999999999999 592.953125 304.4" style="background: rgba(0, 0, 0, 0);" preserveAspectRatio="xMidYMid"><defs><linearGradient id="editing-outline-gradient" x1="0.06162885321092254" x2="0.9383711467890774" y1="-0.39879404629916704" y2="1.398794046299167"><stop offset="0" stop-color="#ee4208"></stop><stop offset="1" stop-color="#4139ff"></stop></linearGradient><filter id="editing-outline" x="-100%" y="-100%" width="300%" height="300%"><feMorphology in="SourceGraphic" operator="dilate" radius="3" result="outline"></feMorphology><feComposite operator="out" in="outline" in2="SourceAlpha"></feComposite></filter></defs><g filter="url(#editing-outline)"><g transform="translate(34.629981994628906, 137.05999946594238)"><path d="M86.40-86.56L86.40-65.74L39.32-65.74L39.32-86.56L86.40-86.56ZM86.40-124.12L86.40-103.30L39.48-103.30L39.48-103.30Q35.23-103.30 33.07-101.18L33.07-101.18L33.07-101.18Q30.91-99.06 30.91-94.97L30.91-94.97L30.91 0L10.09 0L10.09-94.97L10.09-94.97Q10.09-100.34 11.45-104.58L11.45-104.58L11.45-104.58Q12.81-108.83 15.09-112.07L15.09-112.07L15.09-112.07Q17.38-115.31 20.34-117.59L20.34-117.59L20.34-117.59Q23.30-119.88 26.55-121.32L26.55-121.32L26.55-121.32Q29.79-122.76 33.07-123.44L33.07-123.44L33.07-123.44Q36.36-124.12 39.32-124.12L39.32-124.12L86.40-124.12ZM195.47-57.42L195.47-29.23L195.47-29.23Q195.47-26.27 194.79-22.98L194.79-22.98L194.79-22.98Q194.11-19.70 192.67-16.46L192.67-16.46L192.67-16.46Q191.23-13.21 188.94-10.25L188.94-10.25L188.94-10.25Q186.66-7.29 183.42-5.00L183.42-5.00L183.42-5.00Q180.18-2.72 175.93-1.36L175.93-1.36L175.93-1.36Q171.69 0 166.32 0L166.32 0L128.77 0L128.77 0Q125.80 0 122.52-0.68L122.52-0.68L122.52-0.68Q119.24-1.36 115.99-2.80L115.99-2.80L115.99-2.80Q112.75-4.24 109.79-6.53L109.79-6.53L109.79-6.53Q106.82-8.81 104.54-12.05L104.54-12.05L104.54-12.05Q102.26-15.29 100.90-19.58L100.90-19.58L100.90-19.58Q99.54-23.86 99.54-29.23L99.54-29.23L99.54-123.16L120.36-123.16L120.36-29.23L120.36-29.23Q120.36-25.38 122.76-23.10L122.76-23.10L122.76-23.10Q125.16-20.82 128.77-20.82L128.77-20.82L166.32-20.82L166.32-20.82Q170.25-20.82 172.45-23.14L172.45-23.14L172.45-23.14Q174.65-25.46 174.65-29.23L174.65-29.23L174.65-57.42L174.65-57.42Q174.65-61.34 172.33-63.54L172.33-63.54L172.33-63.54Q170.01-65.74 166.32-65.74L166.32-65.74L128.77-65.74L128.77-86.56L166.32-86.56L166.32-86.56Q169.29-86.56 172.57-85.88L172.57-85.88L172.57-85.88Q175.85-85.20 179.09-83.76L179.09-83.76L179.09-83.76Q182.34-82.32 185.30-80.04L185.30-80.04L185.30-80.04Q188.26-77.76 190.51-74.51L190.51-74.51L190.51-74.51Q192.75-71.27 194.11-67.03L194.11-67.03L194.11-67.03Q195.47-62.78 195.47-57.42L195.47-57.42ZM306.38-57.90L306.38-57.90L306.38-57.90Q306.38-53.57 304.86-48.57L304.86-48.57L304.86-48.57Q303.34-43.56 299.93-39.28L299.93-39.28L299.93-39.28Q296.53-34.99 291.04-32.11L291.04-32.11L291.04-32.11Q285.56-29.23 277.71-29.23L277.71-29.23L240.15-29.23L240.15-49.01L277.71-49.01L277.71-49.01Q281.96-49.01 284.28-51.61L284.28-51.61L284.28-51.61Q286.60-54.21 286.60-58.06L286.60-58.06L286.60-58.06Q286.60-62.14 284.00-64.46L284.00-64.46L284.00-64.46Q281.39-66.79 277.71-66.79L277.71-66.79L240.15-66.79L240.15-66.79Q235.91-66.79 233.59-64.18L233.59-64.18L233.59-64.18Q231.27-61.58 231.27-57.74L231.27-57.74L231.27-28.67L231.27-28.67Q231.27-24.50 233.87-22.18L233.87-22.18L233.87-22.18Q236.47-19.86 240.31-19.86L240.31-19.86L277.71-19.86L277.71 0L240.15 0L240.15 0Q235.83 0 230.83-1.52L230.83-1.52L230.83-1.52Q225.82-3.04 221.54-6.45L221.54-6.45L221.54-6.45Q217.25-9.85 214.37-15.33L214.37-15.33L214.37-15.33Q211.49-20.82 211.49-28.67L211.49-28.67L211.49-57.90L211.49-57.90Q211.49-62.22 213.01-67.23L213.01-67.23L213.01-67.23Q214.53-72.23 217.93-76.51L217.93-76.51L217.93-76.51Q221.34-80.80 226.82-83.68L226.82-83.68L226.82-83.68Q232.31-86.56 240.15-86.56L240.15-86.56L277.71-86.56L277.71-86.56Q282.04-86.56 287.04-85.04L287.04-85.04L287.04-85.04Q292.04-83.52 296.33-80.12L296.33-80.12L296.33-80.12Q300.61-76.71 303.50-71.23L303.50-71.23L303.50-71.23Q306.38-65.74 306.38-57.90ZM387.26-86.56L415.93-86.56L378.53-45.72L420.65 0L391.98 0L364.28-30.19L336.57 0L307.82 0L349.86-45.88L312.63-86.56L341.13-86.56L364.12-61.50L387.26-86.56Z" fill="url(#editing-outline-gradient)"></path></g></g><style>text {
  font-size: 64px;
  font-family: Arial Black;
  dominant-baseline: central;
  text-anchor: middle;
}</style></svg>