<svg width="93.36874999999999px" height="56.6px" xmlns="http://www.w3.org/2000/svg" viewBox="203.315625 46.7 93.36874999999999 56.6" style="background: rgba(0, 0, 0, 0);" preserveAspectRatio="xMidYMid"><defs><linearGradient id="editing-outline-gradient" x1="0.06162885321092254" x2="0.9383711467890774" y1="-0.39879404629916704" y2="1.398794046299167"><stop offset="0" stop-color="#ee4208"></stop><stop offset="1" stop-color="#4139ff"></stop></linearGradient><filter id="editing-outline" x="-100%" y="-100%" width="300%" height="300%"><feMorphology in="SourceGraphic" operator="dilate" radius="3" result="outline"></feMorphology><feComposite operator="out" in="outline" in2="SourceAlpha"></feComposite></filter></defs><g filter="url(#editing-outline)"><g transform="translate(222.42500400543213, 82.94499921798706)"><path d="M11.06-11.08L11.06-8.42L5.03-8.42L5.03-11.08L11.06-11.08ZM11.06-15.89L11.06-13.23L5.06-13.23L5.06-13.23Q4.51-13.23 4.23-12.96L4.23-12.96L4.23-12.96Q3.96-12.68 3.96-12.16L3.96-12.16L3.96 0L1.29 0L1.29-12.16L1.29-12.16Q1.29-12.85 1.47-13.39L1.47-13.39L1.47-13.39Q1.64-13.94 1.93-14.35L1.93-14.35L1.93-14.35Q2.23-14.77 2.60-15.06L2.60-15.06L2.60-15.06Q2.98-15.35 3.40-15.53L3.40-15.53L3.40-15.53Q3.81-15.72 4.23-15.81L4.23-15.81L4.23-15.81Q4.66-15.89 5.03-15.89L5.03-15.89L11.06-15.89ZM25.03-7.35L25.03-3.74L25.03-3.74Q25.03-3.36 24.94-2.94L24.94-2.94L24.94-2.94Q24.86-2.52 24.67-2.11L24.67-2.11L24.67-2.11Q24.49-1.69 24.19-1.31L24.19-1.31L24.19-1.31Q23.90-0.93 23.49-0.64L23.49-0.64L23.49-0.64Q23.07-0.35 22.53-0.17L22.53-0.17L22.53-0.17Q21.98 0 21.30 0L21.30 0L16.49 0L16.49 0Q16.11 0 15.69-0.09L15.69-0.09L15.69-0.09Q15.27-0.17 14.85-0.36L14.85-0.36L14.85-0.36Q14.44-0.54 14.06-0.84L14.06-0.84L14.06-0.84Q13.68-1.13 13.39-1.54L13.39-1.54L13.39-1.54Q13.09-1.96 12.92-2.51L12.92-2.51L12.92-2.51Q12.75-3.06 12.75-3.74L12.75-3.74L12.75-15.77L15.41-15.77L15.41-3.74L15.41-3.74Q15.41-3.25 15.72-2.96L15.72-2.96L15.72-2.96Q16.03-2.67 16.49-2.67L16.49-2.67L21.30-2.67L21.30-2.67Q21.80-2.67 22.08-2.96L22.08-2.96L22.08-2.96Q22.36-3.26 22.36-3.74L22.36-3.74L22.36-7.35L22.36-7.35Q22.36-7.85 22.07-8.14L22.07-8.14L22.07-8.14Q21.77-8.42 21.30-8.42L21.30-8.42L16.49-8.42L16.49-11.08L21.30-11.08L21.30-11.08Q21.68-11.08 22.10-11.00L22.10-11.00L22.10-11.00Q22.52-10.91 22.93-10.73L22.93-10.73L22.93-10.73Q23.35-10.54 23.73-10.25L23.73-10.25L23.73-10.25Q24.11-9.96 24.39-9.54L24.39-9.54L24.39-9.54Q24.68-9.13 24.86-8.58L24.86-8.58L24.86-8.58Q25.03-8.04 25.03-7.35L25.03-7.35ZM39.23-7.41L39.23-7.41L39.23-7.41Q39.23-6.86 39.04-6.22L39.04-6.22L39.04-6.22Q38.84-5.58 38.41-5.03L38.41-5.03L38.41-5.03Q37.97-4.48 37.27-4.11L37.27-4.11L37.27-4.11Q36.57-3.74 35.56-3.74L35.56-3.74L30.75-3.74L30.75-6.28L35.56-6.28L35.56-6.28Q36.10-6.28 36.40-6.61L36.40-6.61L36.40-6.61Q36.70-6.94 36.70-7.43L36.70-7.43L36.70-7.43Q36.70-7.96 36.37-8.25L36.37-8.25L36.37-8.25Q36.03-8.55 35.56-8.55L35.56-8.55L30.75-8.55L30.75-8.55Q30.21-8.55 29.91-8.22L29.91-8.22L29.91-8.22Q29.61-7.89 29.61-7.39L29.61-7.39L29.61-3.67L29.61-3.67Q29.61-3.14 29.95-2.84L29.95-2.84L29.95-2.84Q30.28-2.54 30.77-2.54L30.77-2.54L35.56-2.54L35.56 0L30.75 0L30.75 0Q30.20 0 29.56-0.19L29.56-0.19L29.56-0.19Q28.92-0.39 28.37-0.83L28.37-0.83L28.37-0.83Q27.82-1.26 27.45-1.96L27.45-1.96L27.45-1.96Q27.08-2.67 27.08-3.67L27.08-3.67L27.08-7.41L27.08-7.41Q27.08-7.97 27.28-8.61L27.28-8.61L27.28-8.61Q27.47-9.25 27.91-9.80L27.91-9.80L27.91-9.80Q28.34-10.35 29.04-10.72L29.04-10.72L29.04-10.72Q29.75-11.08 30.75-11.08L30.75-11.08L35.56-11.08L35.56-11.08Q36.11-11.08 36.76-10.89L36.76-10.89L36.76-10.89Q37.40-10.69 37.94-10.26L37.94-10.26L37.94-10.26Q38.49-9.82 38.86-9.12L38.86-9.12L38.86-9.12Q39.23-8.42 39.23-7.41ZM49.59-11.08L53.26-11.08L48.47-5.85L53.86 0L50.19 0L46.65-3.87L43.10 0L39.42 0L44.80-5.88L40.03-11.08L43.68-11.08L46.62-7.88L49.59-11.08Z" fill="url(#editing-outline-gradient)"></path></g></g><style>text {
  font-size: 64px;
  font-family: Arial Black;
  dominant-baseline: central;
  text-anchor: middle;
}</style></svg>