<svg width="718.728125px" height="366.8px" xmlns="http://www.w3.org/2000/svg" viewBox="-109.36406249999999 -108.4 718.728125 366.8" style="background: rgba(0, 0, 0, 0);" preserveAspectRatio="xMidYMid"><defs><linearGradient id="editing-outline-gradient" x1="-0.41354545764260087" x2="1.4135454576426008" y1="0.09326335692419985" y2="0.9067366430758002"><stop offset="0" stop-color="#ee4208"></stop><stop offset="1" stop-color="#4139ff"></stop></linearGradient><filter id="editing-outline" x="-100%" y="-100%" width="300%" height="300%"><feMorphology in="SourceGraphic" operator="dilate" radius="6" result="outline"></feMorphology><feComposite operator="out" in="outline" in2="SourceAlpha"></feComposite></filter></defs><g filter="url(#editing-outline)"><g transform="translate(-12.645013809204102, 150.68499755859375)"><path d="M105.37-105.57L105.37-80.18L47.95-80.18L47.95-105.57L105.37-105.57ZM105.37-151.37L105.37-125.98L48.14-125.98L48.14-125.98Q42.97-125.98 40.33-123.39L40.33-123.39L40.33-123.39Q37.70-120.80 37.70-115.82L37.70-115.82L37.70 0L12.30 0L12.30-115.82L12.30-115.82Q12.30-122.36 13.96-127.54L13.96-127.54L13.96-127.54Q15.63-132.71 18.41-136.67L18.41-136.67L18.41-136.67Q21.19-140.63 24.80-143.41L24.80-143.41L24.80-143.41Q28.42-146.19 32.37-147.95L32.37-147.95L32.37-147.95Q36.33-149.71 40.33-150.54L40.33-150.54L40.33-150.54Q44.34-151.37 47.95-151.37L47.95-151.37L105.37-151.37ZM238.38-70.02L238.38-35.64L238.38-35.64Q238.38-32.03 237.55-28.03L237.55-28.03L237.55-28.03Q236.72-24.02 234.96-20.07L234.96-20.07L234.96-20.07Q233.20-16.11 230.42-12.50L230.42-12.50L230.42-12.50Q227.64-8.89 223.68-6.10L223.68-6.10L223.68-6.10Q219.73-3.32 214.55-1.66L214.55-1.66L214.55-1.66Q209.38 0 202.83 0L202.83 0L157.03 0L157.03 0Q153.42 0 149.41-0.83L149.41-0.83L149.41-0.83Q145.41-1.66 141.46-3.42L141.46-3.42L141.46-3.42Q137.50-5.18 133.89-7.96L133.89-7.96L133.89-7.96Q130.27-10.74 127.49-14.70L127.49-14.70L127.49-14.70Q124.71-18.65 123.05-23.88L123.05-23.88L123.05-23.88Q121.39-29.10 121.39-35.64L121.39-35.64L121.39-150.20L146.78-150.20L146.78-35.64L146.78-35.64Q146.78-30.96 149.71-28.17L149.71-28.17L149.71-28.17Q152.64-25.39 157.03-25.39L157.03-25.39L202.83-25.39L202.83-25.39Q207.62-25.39 210.30-28.22L210.30-28.22L210.30-28.22Q212.99-31.05 212.99-35.64L212.99-35.64L212.99-70.02L212.99-70.02Q212.99-74.80 210.16-77.49L210.16-77.49L210.16-77.49Q207.32-80.18 202.83-80.18L202.83-80.18L157.03-80.18L157.03-105.57L202.83-105.57L202.83-105.57Q206.45-105.57 210.45-104.74L210.45-104.74L210.45-104.74Q214.45-103.91 218.41-102.15L218.41-102.15L218.41-102.15Q222.36-100.39 225.98-97.61L225.98-97.61L225.98-97.61Q229.59-94.82 232.32-90.87L232.32-90.87L232.32-90.87Q235.06-86.91 236.72-81.74L236.72-81.74L236.72-81.74Q238.38-76.56 238.38-70.02L238.38-70.02ZM373.63-70.61L373.63-70.61L373.63-70.61Q373.63-65.33 371.78-59.23L371.78-59.23L371.78-59.23Q369.92-53.13 365.77-47.90L365.77-47.90L365.77-47.90Q361.62-42.68 354.93-39.16L354.93-39.16L354.93-39.16Q348.24-35.64 338.67-35.64L338.67-35.64L292.87-35.64L292.87-59.77L338.67-59.77L338.67-59.77Q343.85-59.77 346.68-62.94L346.68-62.94L346.68-62.94Q349.51-66.11 349.51-70.80L349.51-70.80L349.51-70.80Q349.51-75.78 346.34-78.61L346.34-78.61L346.34-78.61Q343.16-81.45 338.67-81.45L338.67-81.45L292.87-81.45L292.87-81.45Q287.70-81.45 284.86-78.27L284.86-78.27L284.86-78.27Q282.03-75.10 282.03-70.41L282.03-70.41L282.03-34.96L282.03-34.96Q282.03-29.88 285.21-27.05L285.21-27.05L285.21-27.05Q288.38-24.22 293.07-24.22L293.07-24.22L338.67-24.22L338.67 0L292.87 0L292.87 0Q287.60 0 281.49-1.86L281.49-1.86L281.49-1.86Q275.39-3.71 270.17-7.86L270.17-7.86L270.17-7.86Q264.94-12.01 261.43-18.70L261.43-18.70L261.43-18.70Q257.91-25.39 257.91-34.96L257.91-34.96L257.91-70.61L257.91-70.61Q257.91-75.88 259.77-81.98L259.77-81.98L259.77-81.98Q261.62-88.09 265.77-93.31L265.77-93.31L265.77-93.31Q269.92-98.54 276.61-102.05L276.61-102.05L276.61-102.05Q283.30-105.57 292.87-105.57L292.87-105.57L338.67-105.57L338.67-105.57Q343.95-105.57 350.05-103.71L350.05-103.71L350.05-103.71Q356.15-101.86 361.38-97.71L361.38-97.71L361.38-97.71Q366.60-93.55 370.12-86.87L370.12-86.87L370.12-86.87Q373.63-80.18 373.63-70.61ZM472.27-105.57L507.23-105.57L461.62-55.76L512.99 0L478.03 0L444.24-36.82L410.45 0L375.39 0L426.66-55.96L381.25-105.57L416.02-105.57L444.04-75L472.27-105.57Z" fill="url(#editing-outline-gradient)"></path></g></g><style>text {
  font-size: 64px;
  font-family: Arial Black;
  dominant-baseline: central;
  text-anchor: middle;
}</style></svg>