<svg width="313.465625px" height="165.2px" xmlns="http://www.w3.org/2000/svg" viewBox="93.2671875 -7.599999999999994 313.465625 165.2" style="background: rgba(0, 0, 0, 0);" preserveAspectRatio="xMidYMid"><defs><linearGradient id="editing-outline-gradient" x1="-0.41354545764260087" x2="1.4135454576426008" y1="0.09326335692419985" y2="0.9067366430758002"><stop offset="0" stop-color="#ee4208"></stop><stop offset="1" stop-color="#4139ff"></stop></linearGradient><filter id="editing-outline" x="-100%" y="-100%" width="300%" height="300%"><feMorphology in="SourceGraphic" operator="dilate" radius="8" result="outline"></feMorphology><feComposite operator="out" in="outline" in2="SourceAlpha"></feComposite></filter></defs><g filter="url(#editing-outline)"><g transform="translate(139.6849880218506, 106.78500175476074)"><path d="M44.26-44.34L44.26-33.67L20.14-33.67L20.14-44.34L44.26-44.34ZM44.26-63.57L44.26-52.91L20.22-52.91L20.22-52.91Q18.05-52.91 16.94-51.82L16.94-51.82L16.94-51.82Q15.83-50.74 15.83-48.64L15.83-48.64L15.83 0L5.17 0L5.17-48.64L5.17-48.64Q5.17-51.39 5.87-53.57L5.87-53.57L5.87-53.57Q6.56-55.74 7.73-57.40L7.73-57.40L7.73-57.40Q8.90-59.06 10.42-60.23L10.42-60.23L10.42-60.23Q11.94-61.40 13.60-62.14L13.60-62.14L13.60-62.14Q15.26-62.88 16.94-63.23L16.94-63.23L16.94-63.23Q18.62-63.57 20.14-63.57L20.14-63.57L44.26-63.57ZM100.12-29.41L100.12-14.97L100.12-14.97Q100.12-13.45 99.77-11.77L99.77-11.77L99.77-11.77Q99.42-10.09 98.68-8.43L98.68-8.43L98.68-8.43Q97.95-6.77 96.78-5.25L96.78-5.25L96.78-5.25Q95.61-3.73 93.95-2.56L93.95-2.56L93.95-2.56Q92.29-1.39 90.11-0.70L90.11-0.70L90.11-0.70Q87.94 0 85.19 0L85.19 0L65.95 0L65.95 0Q64.44 0 62.75-0.35L62.75-0.35L62.75-0.35Q61.07-0.70 59.41-1.44L59.41-1.44L59.41-1.44Q57.75-2.17 56.23-3.34L56.23-3.34L56.23-3.34Q54.71-4.51 53.55-6.17L53.55-6.17L53.55-6.17Q52.38-7.83 51.68-10.03L51.68-10.03L51.68-10.03Q50.98-12.22 50.98-14.97L50.98-14.97L50.98-63.08L61.65-63.08L61.65-14.97L61.65-14.97Q61.65-13.00 62.88-11.83L62.88-11.83L62.88-11.83Q64.11-10.66 65.95-10.66L65.95-10.66L85.19-10.66L85.19-10.66Q87.20-10.66 88.33-11.85L88.33-11.85L88.33-11.85Q89.46-13.04 89.46-14.97L89.46-14.97L89.46-29.41L89.46-29.41Q89.46-31.42 88.27-32.55L88.27-32.55L88.27-32.55Q87.08-33.67 85.19-33.67L85.19-33.67L65.95-33.67L65.95-44.34L85.19-44.34L85.19-44.34Q86.71-44.34 88.39-43.99L88.39-43.99L88.39-43.99Q90.07-43.64 91.73-42.90L91.73-42.90L91.73-42.90Q93.39-42.16 94.91-41.00L94.91-41.00L94.91-41.00Q96.43-39.83 97.58-38.17L97.58-38.17L97.58-38.17Q98.72-36.50 99.42-34.33L99.42-34.33L99.42-34.33Q100.12-32.16 100.12-29.41L100.12-29.41ZM156.93-29.65L156.93-29.65L156.93-29.65Q156.93-27.44 156.15-24.88L156.15-24.88L156.15-24.88Q155.37-22.31 153.62-20.12L153.62-20.12L153.62-20.12Q151.88-17.92 149.07-16.45L149.07-16.45L149.07-16.45Q146.26-14.97 142.24-14.97L142.24-14.97L123.01-14.97L123.01-25.10L142.24-25.10L142.24-25.10Q144.42-25.10 145.61-26.43L145.61-26.43L145.61-26.43Q146.79-27.77 146.79-29.74L146.79-29.74L146.79-29.74Q146.79-31.83 145.46-33.02L145.46-33.02L145.46-33.02Q144.13-34.21 142.24-34.21L142.24-34.21L123.01-34.21L123.01-34.21Q120.83-34.21 119.64-32.87L119.64-32.87L119.64-32.87Q118.45-31.54 118.45-29.57L118.45-29.57L118.45-14.68L118.45-14.68Q118.45-12.55 119.79-11.36L119.79-11.36L119.79-11.36Q121.12-10.17 123.09-10.17L123.09-10.17L142.24-10.17L142.24 0L123.01 0L123.01 0Q120.79 0 118.23-0.78L118.23-0.78L118.23-0.78Q115.66-1.56 113.47-3.30L113.47-3.30L113.47-3.30Q111.28-5.04 109.80-7.85L109.80-7.85L109.80-7.85Q108.32-10.66 108.32-14.68L108.32-14.68L108.32-29.65L108.32-29.65Q108.32-31.87 109.10-34.43L109.10-34.43L109.10-34.43Q109.88-37.00 111.62-39.19L111.62-39.19L111.62-39.19Q113.37-41.38 116.18-42.86L116.18-42.86L116.18-42.86Q118.99-44.34 123.01-44.34L123.01-44.34L142.24-44.34L142.24-44.34Q144.46-44.34 147.02-43.56L147.02-43.56L147.02-43.56Q149.58-42.78 151.78-41.04L151.78-41.04L151.78-41.04Q153.97-39.29 155.45-36.48L155.45-36.48L155.45-36.48Q156.93-33.67 156.93-29.65ZM198.35-44.34L213.04-44.34L193.88-23.42L215.46 0L200.77 0L186.58-15.46L172.39 0L157.66 0L179.20-23.50L160.13-44.34L174.73-44.34L186.50-31.50L198.35-44.34Z" fill="url(#editing-outline-gradient)"></path></g></g><style>text {
  font-size: 64px;
  font-family: Arial Black;
  dominant-baseline: central;
  text-anchor: middle;
}</style></svg>